<svg width="29" height="28" viewBox="0 0 29 28" fill="none" xmlns="http://www.w3.org/2000/svg">
<path d="M11 9.33317C11 11.2662 12.567 12.8332 14.5 12.8332C16.433 12.8332 18 11.2662 18 9.33317M4 19.6001V8.40006C4 7.09328 4 6.43939 4.25432 5.94027C4.47802 5.50122 4.83472 5.14453 5.27376 4.92082C5.77289 4.6665 6.42677 4.6665 7.73356 4.6665H21.2669C22.5737 4.6665 23.2262 4.6665 23.7253 4.92082C24.1643 5.14453 24.5222 5.50122 24.7459 5.94027C25 6.43891 25 7.092 25 8.39623V19.604C25 20.9082 25 21.5604 24.7459 22.059C24.5222 22.4981 24.1643 22.8554 23.7253 23.0791C23.2267 23.3332 22.5745 23.3332 21.2703 23.3332H7.72973C6.42549 23.3332 5.7724 23.3332 5.27376 23.0791C4.83472 22.8554 4.47802 22.4981 4.25432 22.059C4 21.5599 4 20.9069 4 19.6001Z" stroke="white" stroke-width="2" stroke-linecap="round" stroke-linejoin="round"/>
</svg>
