<svg width="22" height="22" viewBox="0 0 22 22" fill="none" xmlns="http://www.w3.org/2000/svg">
<path d="M20.3334 16.8338V10.3612C20.3334 9.73778 20.3328 9.42591 20.257 9.13583C20.1898 8.87876 20.0796 8.63549 19.9303 8.41566C19.762 8.16759 19.5278 7.96188 19.0587 7.55137L13.4587 2.65137C12.5876 1.88921 12.1521 1.50832 11.662 1.36337C11.2301 1.23565 10.7697 1.23565 10.3378 1.36337C9.84807 1.50821 9.41318 1.88874 8.54344 2.64975L2.94159 7.55138C2.47243 7.96189 2.2384 8.16759 2.07001 8.41566C1.92078 8.63549 1.80966 8.87876 1.74249 9.13583C1.66669 9.42591 1.66669 9.73777 1.66669 10.3612V16.8338C1.66669 17.921 1.66669 18.4644 1.8443 18.8932C2.08112 19.4649 2.53506 19.9197 3.10679 20.1565C3.53559 20.3341 4.07919 20.3341 5.16639 20.3341C6.25358 20.3341 6.79778 20.3341 7.22658 20.1565C7.79831 19.9197 8.25213 19.465 8.48895 18.8933C8.66657 18.4645 8.66669 17.9209 8.66669 16.8337V15.667C8.66669 14.3783 9.71136 13.3337 11 13.3337C12.2887 13.3337 13.3334 14.3783 13.3334 15.667V16.8337C13.3334 17.9209 13.3334 18.4645 13.511 18.8933C13.7478 19.465 14.2017 19.9197 14.7735 20.1565C15.2023 20.3341 15.7459 20.3341 16.8331 20.3341C17.9202 20.3341 18.4644 20.3341 18.8932 20.1565C19.465 19.9197 19.9188 19.4649 20.1556 18.8932C20.3332 18.4644 20.3334 17.921 20.3334 16.8338Z" stroke="white" stroke-width="2" stroke-linecap="round" stroke-linejoin="round"/>
</svg>
