<svg width="22" height="25" viewBox="0 0 22 25" fill="none" xmlns="http://www.w3.org/2000/svg">
<path d="M14 18.8335V20.0002C14 21.9332 12.433 23.5002 10.5 23.5002C8.56701 23.5002 7.00001 21.9332 7.00001 20.0002V18.8336M14 18.8335L7.00001 18.8336M14 18.8335H18.6667C19.311 18.8335 19.8333 18.3112 19.8333 17.6668V16.9832C19.8333 16.6738 19.7103 16.3772 19.4915 16.1584L18.8957 15.5625C18.749 15.4158 18.6667 15.2168 18.6667 15.0094V10.6668C18.6667 10.461 18.6592 10.2568 18.6439 10.0556M7.00001 18.8336L2.33334 18.8337C1.68901 18.8337 1.16667 18.3109 1.16667 17.6666V16.9832C1.16667 16.6738 1.28968 16.3776 1.50847 16.1587L2.10433 15.562C2.25096 15.4153 2.33334 15.2171 2.33334 15.0097V10.6668C2.33334 6.15651 5.98967 2.50016 10.5 2.50016C11.3302 2.50016 12.1315 2.62404 12.8863 2.85433M18.6439 10.0556C20.0513 9.25201 21 7.73688 21 6.00016C21 3.42283 18.9107 1.3335 16.3333 1.3335C14.9681 1.3335 13.7397 1.91978 12.8863 2.85433M18.6439 10.0556C17.9627 10.4446 17.174 10.6668 16.3333 10.6668C13.756 10.6668 11.6667 8.57749 11.6667 6.00016C11.6667 4.78811 12.1287 3.68398 12.8863 2.85433M18.6439 10.0556C18.6439 10.0556 18.6439 10.0556 18.6439 10.0556ZM12.8863 2.85433C12.8869 2.85449 12.8874 2.85466 12.888 2.85482" stroke="#919191" stroke-width="2" stroke-linecap="round" stroke-linejoin="round"/>
</svg>
