<svg width="29" height="28" viewBox="0 0 29 28" fill="none" xmlns="http://www.w3.org/2000/svg">
<path d="M18 19.8335V21.0002C18 22.9332 16.433 24.5002 14.5 24.5002C12.567 24.5002 11 22.9332 11 21.0002V19.8336M18 19.8335L11 19.8336M18 19.8335H22.6666C23.311 19.8335 23.8333 19.3112 23.8333 18.6668V17.9832C23.8333 17.6738 23.7102 17.3772 23.4915 17.1584L22.8956 16.5625C22.749 16.4158 22.6666 16.2168 22.6666 16.0094V11.6668C22.6666 11.461 22.6592 11.2568 22.6438 11.0556M11 19.8336L6.33329 19.8337C5.68897 19.8337 5.16663 19.3109 5.16663 18.6666V17.9832C5.16663 17.6738 5.28964 17.3776 5.50842 17.1587L6.10429 16.562C6.25092 16.4153 6.33329 16.2171 6.33329 16.0097V11.6668C6.33329 7.15651 9.98963 3.50016 14.5 3.50016C15.3302 3.50016 16.1314 3.62404 16.8863 3.85433M22.6438 11.0556C24.0513 10.252 25 8.73688 25 7.00016C25 4.42283 22.9106 2.3335 20.3333 2.3335C18.968 2.3335 17.7397 2.91978 16.8863 3.85433M22.6438 11.0556C21.9626 11.4446 21.1739 11.6668 20.3333 11.6668C17.756 11.6668 15.6666 9.57749 15.6666 7.00016C15.6666 5.78811 16.1287 4.68398 16.8863 3.85433M22.6438 11.0556C22.6438 11.0556 22.6438 11.0556 22.6438 11.0556ZM16.8863 3.85433C16.8868 3.85449 16.8874 3.85466 16.8879 3.85482" stroke="white" stroke-width="2" stroke-linecap="round" stroke-linejoin="round"/>
</svg>
