<svg width="24" height="16" viewBox="0 0 24 16" fill="none" xmlns="http://www.w3.org/2000/svg">
<path d="M14.3333 1H5C3.9128 1 3.3689 1 2.9401 1.17761C2.36837 1.41443 1.91443 1.86894 1.67761 2.44067C1.5 2.86947 1.5 3.41307 1.5 4.50027C3.433 4.50027 5 6.06673 5 7.99973C5 9.93273 3.433 11.5 1.5 11.5C1.5 12.5872 1.5 13.1308 1.67761 13.5596C1.91443 14.1313 2.36837 14.5854 2.9401 14.8223C3.3689 14.9999 3.91281 15 5 15H14.3333M14.3333 1H19C20.0872 1 20.6308 1 21.0596 1.17761C21.6313 1.41443 22.0854 1.86894 22.3223 2.44067C22.4999 2.86947 22.4999 3.41307 22.4999 4.50027C20.5669 4.50027 19 6.067 19 8C19 9.933 20.5669 11.5 22.4999 11.5C22.4999 12.5872 22.4999 13.1308 22.3223 13.5596C22.0854 14.1313 21.6313 14.5854 21.0596 14.8223C20.6308 14.9999 20.0872 15 19 15H14.3333M14.3333 1V15" stroke="white" stroke-width="2" stroke-linecap="round" stroke-linejoin="round"/>
</svg>
